*********************************************************************

Hansel and Gretel Witch Hunters 2013 UNRATED 1080p x264 - alrmothe 
*********************************************************************

Title : Hansel and Gretel Witch Hunters
YEAR: 2013
GENRE : Action | Fantasy | Horror      
imdb URL :http://www.imdb.com/title/tt1428538/
Overall bit rate: 9645 kbps
Format version: Version 4 / Version 2
File size:  6.60 GiB
Duration:  1h 37mn
Sub:Arabic,English
*********************************************************************

Video
Format: Matroska
Format : AVC 
Format/Info : Advanced Video Codec 
Format profile : High@L4.1 
Format settings, CABAC : Yes 
Format settings, ReFrames : 2 frames  
Codec ID : V_MPEG4/ISO/AVC  
Bit rate : 9000 kbps 
Width : 1920 pixels 
Height : 800 pixels 
Display aspect ratio : 2:40:1 
Frame rate : 23.976 fps 
Color space : YUV 
Chroma subsampling : 4:2:0 
Bit depth : 8 bits 
Scan type : Progressive 
Bits/(Pixel*Frame) : 0.244 
Stream size: 6.03 GiB 


Audio 
Format: Ac3
Bit rate :640 Kbps
Channel(s) : 6 channels
Channel positions:Front: L C R, Side: L R, LFE
Sampling rate: 48.0 KHz
Bit depth: 16 bits
Compression mode: Lossy
Stream size: 448 GiB
Language : English

******************************************************************

Screenshots 
http://img845.imageshack.us/img845/558/vlcsnap2013051823h54m19.png 
http://img600.imageshack.us/img600/9180/vlcsnap2013051823h53m33.png 
http://img706.imageshack.us/img706/5616/vlcsnap2013051823h53m22.png 
http://img546.imageshack.us/img546/8503/vlcsnap2013051823h55m12.png 
http://img811.imageshack.us/img811/544/vlcsnap2013051823h56m00.png
